<svg
      xmlns="http://www.w3.org/2000/svg"
      width="10"
      height="12"
      version="1.1"
      viewBox="0 0 10 12"
    >
      <g transform="translate(0 -296.031)">
        <g transform="translate(1 304.031)">
          <g
            fillOpacity="1"
            stroke="none"
            strokeLinecap="butt"
            strokeLinejoin="miter"
            strokeOpacity="1"
            strokeWidth="1"
            transform="translate(0 -304.767)"
          >
            <path
              fill="none"
              d="M0 294.767h4l1-2h6l1 2h4v2h-2v10l-2 2H4l-2-2v-10H0z"
            ></path>
            <path fill="#000" d="M0 304.767l4 4 4-4z"></path>
          </g>
        </g>
        <g transform="matrix(1 0 0 -1 1 300.031)">
          <g
            fillOpacity="1"
            stroke="none"
            strokeLinecap="butt"
            strokeLinejoin="miter"
            strokeOpacity="1"
            strokeWidth="1"
            transform="translate(0 -304.767)"
          >
            <path
              fill="none"
              d="M0 294.767h4l1-2h6l1 2h4v2h-2v10l-2 2H4l-2-2v-10H0z"
            ></path>
            <path fill="#000" d="M0 304.767l4 4 4-4z"></path>
          </g>
        </g>
        <path
          fill="none"
          stroke="#000"
          strokeLinecap="butt"
          strokeLinejoin="miter"
          strokeOpacity="1"
          strokeWidth="1"
          d="M0 302.031h10"
        ></path>
      </g>
    </svg>